<?xml version="1.0" encoding="UTF-8"?>
<svg id="Layer_1" data-name="Layer 1" xmlns="http://www.w3.org/2000/svg" width="960" height="270" version="1.1" viewBox="0 0 960 270">
  <defs>
    <style>
      .cls-1 {
        fill-rule: evenodd;
      }

      .cls-1, .cls-2 {
        fill: #1974bb;
      }

      .cls-1, .cls-2, .cls-3 {
        stroke-width: 0px;
      }

      .cls-3 {
        fill: #fff;
      }
    </style>
  </defs>
  <rect class="cls-3" width="960" height="270"/>
  <g>
    <g>
      <path class="cls-1" d="M162.253,94.567v-11.276h10.954v11.276h-10.954ZM243.443,94.567v-11.276h10.954v11.276h-10.954ZM423.22,141.928v-26.419h-7.41v-8.699h7.732v-16.431h10.632v16.431h13.854v8.699h-13.854v25.13c0,2.255.323,4.188.967,5.799s1.288,2.9,2.255,3.866c.966.967,1.933,1.611,2.9,2.255,1.288.644,2.255.967,3.222.967.483,0,.966.08,1.45.161.483.081.967.161,1.45.161l2.577-.322v9.665c-.422,0-.905.061-1.45.131-.704.089-1.509.191-2.417.191-1.933,0-3.544,0-5.155-.322l-.439-.087c-1.517-.298-3.277-.644-5.037-1.524-2.255-.966-3.866-1.933-5.477-3.544-1.611-1.611-2.9-3.544-3.867-6.121-1.289-3.221-1.933-6.121-1.933-9.987ZM377.792,162.87v-57.026h10.632v9.988l-.322,4.188h.322c1.289-4.188,3.544-8.055,6.766-10.632,3.222-2.9,6.766-4.188,11.277-4.188l2.899.322v10.632c-.966-.322-1.933-.322-3.222-.322-3.544,0-6.766,1.289-9.665,3.544-2.9,2.255-5.155,5.799-6.443,9.665-.967,2.9-1.289,6.444-1.289,10.31v23.197l-10.955.322ZM324.955,112.932c-5.477,5.477-8.055,12.565-8.055,21.586,0,8.377,2.9,15.465,8.377,21.586,5.477,5.477,12.888,8.377,21.586,8.377,4.189,0,8.055-.644,11.921-2.255,3.544-1.288,6.121-2.577,7.41-3.544.532-.532,1.064-.967,1.542-1.357h0c.391-.319.745-.608,1.035-.898l-4.51-8.055-1.933,1.611c-1.289.966-3.222,2.255-6.121,3.222-2.9.967-5.799,1.611-8.699,1.611-5.155,0-9.665-1.611-13.532-4.832-3.866-3.222-5.799-7.732-6.121-13.854h41.561l.323-4.833c0-7.732-2.255-13.854-6.444-19.009-4.189-4.833-10.31-7.41-18.042-7.41-8.056,0-14.822,2.577-20.298,8.054ZM328.499,127.752h30.285c0-4.833-1.611-8.377-4.189-10.632-2.577-2.577-5.799-3.866-9.665-3.866-4.189,0-8.055,1.289-10.954,3.866-2.9,2.577-4.511,6.121-5.477,10.632ZM271.15,113.254c-5.799,5.799-8.699,12.887-8.699,21.264s2.9,15.465,9.021,20.942c5.799,5.477,12.887,8.377,21.908,8.377,2.9,0,5.477-.322,8.055-.966,2.269-.567,4.288-1.384,5.838-2.011l.605-.244c1.611-.966,3.222-1.933,4.511-2.9,1.611-.966,2.578-1.933,2.9-2.255l.966-.966-4.51-8.055-1.933,1.933c-1.289,1.289-3.544,2.577-6.444,3.866s-5.799,1.933-9.021,1.933c-5.799,0-10.632-1.933-14.498-5.799s-5.799-8.699-5.799-14.498,1.611-10.632,5.477-14.498c3.867-3.866,8.377-5.799,14.176-5.799,2.9,0,5.799.644,8.377,1.933,2.9,1.289,4.511,2.255,5.478,2.9l1.933,1.933,5.155-7.732-2.255-1.933c-1.611-1.289-4.188-2.9-7.732-4.188-3.544-1.289-7.41-1.933-11.599-1.933-9.023-.003-16.11,2.897-21.91,8.696ZM243.765,105.844v57.026h10.954v-57.026h-10.954ZM189.961,173.179c4.833,2.577,9.987,3.866,15.465,3.866s9.665-1.289,12.887-3.866c3.222-2.578,4.832-6.766,4.832-12.243v-7.733h-.322c-3.544,5.799-9.021,9.021-16.753,9.021s-13.854-2.9-18.365-8.377-6.766-12.565-6.766-20.942,2.255-15.142,6.766-20.62c4.511-5.155,10.632-8.055,18.365-8.055,2.577,0,4.832.322,7.088.967,2.255.644,3.866,1.289,5.155,2.255.269.202.523.389.767.569h.001c.924.681,1.689,1.244,2.454,2.009.966.967,1.611,1.611,1.933,2.255l.644.644h.322v-7.088h10.31v54.449c0,4.511-.967,8.377-2.255,11.921-1.611,3.544-3.866,6.121-6.444,8.054-3.222,2.255-6.443,3.866-9.665,4.833-3.222.966-6.766,1.611-10.632,1.611-6.766,0-13.209-1.611-19.331-4.833l3.544-8.697ZM219.602,148.049c-2.9,2.9-6.444,4.511-10.954,4.511-4.832,0-9.021-1.611-11.921-4.832-2.9-3.544-4.511-8.377-4.511-14.498,0-5.799,1.611-10.632,4.189-13.854,2.577-3.544,6.443-5.155,11.276-5.155,10.632,0,16.109,6.121,16.109,19.009,0,6.765-1.289,11.597-4.188,14.819ZM162.576,105.844v57.026h10.954v-57.026h-10.954ZM99.106,134.518c0-9.021,2.255-16.109,7.088-21.586s10.954-8.054,18.686-8.054c2.577,0,4.833.322,6.766.967,2.255.644,3.866,1.289,5.155,2.255.591.443,1.114.887,1.601,1.299.574.487,1.098.93,1.621,1.279.967.967,1.611,1.611,1.933,2.255l.322.967h.322c0-.422-.061-.905-.131-1.45-.089-.703-.192-1.509-.192-2.416v-26.421h10.954v79.256h-10.31v-9.343h-.322c0,.322-.322.644-.644.966-.199.199-.521.644-.966,1.259h0c-.275.381-.597.826-.967,1.318-.966,1.289-2.255,2.255-3.544,3.222-1.289.966-3.222,1.933-5.477,2.577s-4.833.966-7.41.966c-7.732,0-13.854-2.577-18.364-8.054-3.866-5.153-6.121-12.563-6.121-21.262ZM114.571,149.338c-2.9-3.866-4.511-8.699-4.511-14.82,0-6.444,1.611-11.276,4.833-15.143,2.9-3.544,7.088-5.477,11.598-5.477,5.155,0,9.021,2.255,11.921,6.121,2.9,3.866,4.188,8.699,4.188,14.176,0,7.088-1.611,11.921-4.833,15.465-2.9,3.544-7.088,5.154-11.598,5.154-4.833,0-8.699-1.61-11.598-5.476Z"/>
      <path class="cls-1" d="M460.915,83.291c-6.121,0-11.276,4.833-11.276,11.276,0,6.121,4.833,11.276,11.276,11.276,6.121,0,11.276-5.155,11.276-11.276s-5.155-11.276-11.276-11.276ZM457.049,100.689v.322h1.933v-4.833h2.577l2.577,4.833h1.933l-2.577-4.833c0-.322-.323-.644-.323-.644.644-.322,1.289-.644,1.611-1.289.323-.322.644-1.289.644-1.933,0-.967-.322-1.611-.644-2.255-.322-.644-.966-.967-1.611-1.289-.322-.322-1.289-.322-2.255-.322h-3.866v12.243h0ZM461.559,94.245h-2.577l.322-4.511h1.933c.644,0,1.288,0,1.611.322.644.322.966.966.966,1.933,0,.644-.322,1.289-.644,1.611-.322.323-.966.645-1.611.645ZM451.894,94.567c0,5.155,4.189,9.021,9.021,9.021,5.155,0,9.021-4.188,9.021-9.021,0-5.155-4.188-9.021-9.021-9.021-5.155,0-9.021,4.189-9.021,9.021Z"/>
    </g>
    <g>
      <path class="cls-2" d="M758.953,116.31c-5.956,0-11.024,2.281-15.206,6.969-4.182,4.878-6.082,11.214-6.082,19.387,0,8.046,1.901,14.319,5.765,19.197,3.865,4.688,8.933,7.159,15.016,7.159,5.956,0,11.024-2.281,15.206-6.652,3.991-4.372,6.082-11.024,6.082-19.894,0-7.159-1.774-13.242-5.385-18.31-3.675-5.259-8.743-7.856-15.396-7.856Z"/>
      <path class="cls-2" d="M765.859,39.965c-52.486,0-95.035,42.549-95.035,95.035s42.549,95.035,95.035,95.035,95.035-42.549,95.035-95.035-42.549-95.035-95.035-95.035ZM793.165,179.54h-13.432v-6.969l.19-4.878h-.38c-.19.38-.507.887-.887,1.394-.38.507-1.204,1.774-2.471,3.295s-2.788,2.978-4.562,4.182-3.991,2.281-6.969,3.295c-2.978,1.077-6.082,1.394-9.44,1.394-9.947,0-17.803-3.485-23.569-10.644-5.512-7.159-8.49-16.409-8.49-27.94,0-11.721,3.168-20.971,9.25-27.94,6.272-6.969,14.129-10.454,23.949-10.454,3.168,0,6.082.38,8.933,1.204,2.788.697,4.878,1.774,6.462,2.978s2.978,2.281,4.182,3.485,2.091,2.091,2.598,2.978l.507,1.204h.38c-.19-1.394-.38-3.168-.38-4.878v-34.403h14.129s0,102.701,0,102.701Z"/>
    </g>
  </g>
</svg>